<svg xmlns="http://www.w3.org/2000/svg" viewBox="0 0 64 64" width="64" height="64">
  <!-- Background -->
  <rect width="64" height="64" rx="14" fill="#1d4ed8"/>
  <!-- Book shape -->
  <rect x="14" y="16" width="15" height="32" rx="2" fill="#bfdbfe"/>
  <rect x="35" y="16" width="15" height="32" rx="2" fill="#bfdbfe"/>
  <!-- Spine -->
  <rect x="28" y="14" width="8" height="36" rx="1" fill="#93c5fd"/>
  <!-- Lines on left page -->
  <rect x="17" y="23" width="9" height="2" rx="1" fill="#1d4ed8" opacity="0.5"/>
  <rect x="17" y="28" width="9" height="2" rx="1" fill="#1d4ed8" opacity="0.5"/>
  <rect x="17" y="33" width="9" height="2" rx="1" fill="#1d4ed8" opacity="0.5"/>
  <rect x="17" y="38" width="6" height="2" rx="1" fill="#1d4ed8" opacity="0.5"/>
  <!-- Lines on right page -->
  <rect x="38" y="23" width="9" height="2" rx="1" fill="#1d4ed8" opacity="0.5"/>
  <rect x="38" y="28" width="9" height="2" rx="1" fill="#1d4ed8" opacity="0.5"/>
  <rect x="38" y="33" width="9" height="2" rx="1" fill="#1d4ed8" opacity="0.5"/>
  <rect x="38" y="38" width="6" height="2" rx="1" fill="#1d4ed8" opacity="0.5"/>
</svg>
